<mxfile host="Electron" modified="2024-05-03T13:38:45.781Z" agent="Mozilla/5.0 (Windows NT 10.0; Win64; x64) AppleWebKit/537.36 (KHTML, like Gecko) draw.io/24.2.5 Chrome/120.0.6099.109 Electron/28.1.0 Safari/537.36" etag="y3gkz018D9QmAAMXsgxw" version="24.2.5" type="device">
  <diagram name="Halaman-1" id="WrnUgrzRlpnRBYZr0lQq">
    <mxGraphModel dx="794" dy="559" grid="1" gridSize="10" guides="1" tooltips="1" connect="1" arrows="1" fold="1" page="1" pageScale="1" pageWidth="960" pageHeight="760" math="0" shadow="0">
      <root>
        <mxCell id="0" />
        <mxCell id="1" parent="0" />
        <mxCell id="BjdylfV-y9TQfgdL4LUo-3" style="edgeStyle=orthogonalEdgeStyle;rounded=0;orthogonalLoop=1;jettySize=auto;html=1;" edge="1" parent="1" source="LRcHN5__HN3L925FKqg--2" target="y90Ww6lygDX5tpMKGwTT-1">
          <mxGeometry relative="1" as="geometry" />
        </mxCell>
        <mxCell id="LRcHN5__HN3L925FKqg--2" value="&lt;b&gt;Dog&lt;/b&gt;&lt;div&gt;&lt;font face=&quot;Tahoma&quot;&gt;&amp;lt;&amp;lt; abstract &amp;gt;&amp;gt;&lt;/font&gt;&lt;/div&gt;" style="swimlane;fontStyle=0;childLayout=stackLayout;horizontal=1;startSize=40;horizontalStack=0;resizeParent=1;resizeParentMax=0;resizeLast=0;collapsible=1;marginBottom=0;whiteSpace=wrap;html=1;" parent="1" vertex="1">
          <mxGeometry x="310" y="280" width="170" height="190" as="geometry" />
        </mxCell>
        <mxCell id="LRcHN5__HN3L925FKqg--3" value="+ position : int&lt;div&gt;+ averageLength : int&lt;/div&gt;" style="text;strokeColor=#FFFFFF;fillColor=none;align=left;verticalAlign=middle;spacingLeft=4;spacingRight=4;overflow=hidden;points=[[0,0.5],[1,0.5]];portConstraint=eastwest;rotatable=0;whiteSpace=wrap;html=1;strokeWidth=1;perimeterSpacing=0;" parent="LRcHN5__HN3L925FKqg--2" vertex="1">
          <mxGeometry y="40" width="170" height="40" as="geometry" />
        </mxCell>
        <mxCell id="LRcHN5__HN3L925FKqg--4" value="&lt;div&gt;&lt;span style=&quot;background-color: initial;&quot;&gt;+ abstract describe( ) : void&lt;/span&gt;&lt;br&gt;&lt;/div&gt;&lt;div&gt;&lt;br&gt;&lt;/div&gt;&lt;div&gt;+ getPosition( ) : int&lt;/div&gt;&lt;div&gt;+ setPosition( ) : void&lt;/div&gt;&lt;div&gt;+ getAverageLength( ) : int&lt;/div&gt;&lt;div&gt;+ setAverageLength( ) : void&lt;/div&gt;" style="text;strokeColor=none;fillColor=none;align=left;verticalAlign=middle;spacingLeft=4;spacingRight=4;overflow=hidden;points=[[0,0.5],[1,0.5]];portConstraint=eastwest;rotatable=0;whiteSpace=wrap;html=1;" parent="LRcHN5__HN3L925FKqg--2" vertex="1">
          <mxGeometry y="80" width="170" height="110" as="geometry" />
        </mxCell>
        <mxCell id="BjdylfV-y9TQfgdL4LUo-4" style="edgeStyle=orthogonalEdgeStyle;rounded=0;orthogonalLoop=1;jettySize=auto;html=1;" edge="1" parent="1" source="LRcHN5__HN3L925FKqg--11" target="LRcHN5__HN3L925FKqg--2">
          <mxGeometry relative="1" as="geometry">
            <Array as="points">
              <mxPoint x="240" y="200" />
              <mxPoint x="240" y="380" />
            </Array>
          </mxGeometry>
        </mxCell>
        <mxCell id="LRcHN5__HN3L925FKqg--11" value="&lt;b&gt;Pittbull&lt;/b&gt;" style="swimlane;fontStyle=0;childLayout=stackLayout;horizontal=1;startSize=30;horizontalStack=0;resizeParent=1;resizeParentMax=0;resizeLast=0;collapsible=1;marginBottom=0;whiteSpace=wrap;html=1;" parent="1" vertex="1">
          <mxGeometry x="30" y="160" width="170" height="80" as="geometry" />
        </mxCell>
        <mxCell id="LRcHN5__HN3L925FKqg--12" value="" style="text;strokeColor=#FFFFFF;fillColor=none;align=left;verticalAlign=middle;spacingLeft=4;spacingRight=4;overflow=hidden;points=[[0,0.5],[1,0.5]];portConstraint=eastwest;rotatable=0;whiteSpace=wrap;html=1;strokeWidth=1;" parent="LRcHN5__HN3L925FKqg--11" vertex="1">
          <mxGeometry y="30" width="170" height="10" as="geometry" />
        </mxCell>
        <mxCell id="LRcHN5__HN3L925FKqg--13" value="&lt;div&gt;&lt;b&gt;+ move( ) : void&lt;br&gt;&lt;/b&gt;&lt;/div&gt;&lt;b&gt;+ describe( ) : void&lt;/b&gt;" style="text;strokeColor=none;fillColor=none;align=left;verticalAlign=middle;spacingLeft=4;spacingRight=4;overflow=hidden;points=[[0,0.5],[1,0.5]];portConstraint=eastwest;rotatable=0;whiteSpace=wrap;html=1;" parent="LRcHN5__HN3L925FKqg--11" vertex="1">
          <mxGeometry y="40" width="170" height="40" as="geometry" />
        </mxCell>
        <mxCell id="BjdylfV-y9TQfgdL4LUo-5" style="edgeStyle=orthogonalEdgeStyle;rounded=0;orthogonalLoop=1;jettySize=auto;html=1;" edge="1" parent="1" source="LRcHN5__HN3L925FKqg--15" target="LRcHN5__HN3L925FKqg--2">
          <mxGeometry relative="1" as="geometry">
            <Array as="points">
              <mxPoint x="240" y="320" />
              <mxPoint x="240" y="380" />
            </Array>
          </mxGeometry>
        </mxCell>
        <mxCell id="LRcHN5__HN3L925FKqg--15" value="&lt;b&gt;SiberianHusky&lt;/b&gt;" style="swimlane;fontStyle=0;childLayout=stackLayout;horizontal=1;startSize=30;horizontalStack=0;resizeParent=1;resizeParentMax=0;resizeLast=0;collapsible=1;marginBottom=0;whiteSpace=wrap;html=1;" parent="1" vertex="1">
          <mxGeometry x="30" y="280" width="170" height="80" as="geometry" />
        </mxCell>
        <mxCell id="LRcHN5__HN3L925FKqg--16" value="" style="text;strokeColor=#FFFFFF;fillColor=none;align=left;verticalAlign=middle;spacingLeft=4;spacingRight=4;overflow=hidden;points=[[0,0.5],[1,0.5]];portConstraint=eastwest;rotatable=0;whiteSpace=wrap;html=1;strokeWidth=1;" parent="LRcHN5__HN3L925FKqg--15" vertex="1">
          <mxGeometry y="30" width="170" height="10" as="geometry" />
        </mxCell>
        <mxCell id="LRcHN5__HN3L925FKqg--17" value="&lt;div&gt;&lt;b&gt;+ move( ) : void&lt;br&gt;&lt;/b&gt;&lt;/div&gt;&lt;b&gt;+ describe( ) : void&lt;/b&gt;" style="text;strokeColor=none;fillColor=none;align=left;verticalAlign=middle;spacingLeft=4;spacingRight=4;overflow=hidden;points=[[0,0.5],[1,0.5]];portConstraint=eastwest;rotatable=0;whiteSpace=wrap;html=1;" parent="LRcHN5__HN3L925FKqg--15" vertex="1">
          <mxGeometry y="40" width="170" height="40" as="geometry" />
        </mxCell>
        <mxCell id="BjdylfV-y9TQfgdL4LUo-7" style="edgeStyle=orthogonalEdgeStyle;rounded=0;orthogonalLoop=1;jettySize=auto;html=1;" edge="1" parent="1" source="LRcHN5__HN3L925FKqg--19" target="LRcHN5__HN3L925FKqg--2">
          <mxGeometry relative="1" as="geometry">
            <Array as="points">
              <mxPoint x="240" y="440" />
              <mxPoint x="240" y="380" />
            </Array>
          </mxGeometry>
        </mxCell>
        <mxCell id="LRcHN5__HN3L925FKqg--19" value="&lt;b&gt;Bulldog&lt;/b&gt;" style="swimlane;fontStyle=0;childLayout=stackLayout;horizontal=1;startSize=30;horizontalStack=0;resizeParent=1;resizeParentMax=0;resizeLast=0;collapsible=1;marginBottom=0;whiteSpace=wrap;html=1;" parent="1" vertex="1">
          <mxGeometry x="30" y="400" width="170" height="80" as="geometry" />
        </mxCell>
        <mxCell id="LRcHN5__HN3L925FKqg--20" value="" style="text;strokeColor=#FFFFFF;fillColor=none;align=left;verticalAlign=middle;spacingLeft=4;spacingRight=4;overflow=hidden;points=[[0,0.5],[1,0.5]];portConstraint=eastwest;rotatable=0;whiteSpace=wrap;html=1;strokeWidth=1;perimeterSpacing=0;" parent="LRcHN5__HN3L925FKqg--19" vertex="1">
          <mxGeometry y="30" width="170" height="10" as="geometry" />
        </mxCell>
        <mxCell id="LRcHN5__HN3L925FKqg--21" value="&lt;div&gt;&lt;b&gt;+ move( ) : void&lt;br&gt;&lt;/b&gt;&lt;/div&gt;&lt;b&gt;+ describe( ) : void&lt;/b&gt;" style="text;strokeColor=none;fillColor=none;align=left;verticalAlign=middle;spacingLeft=4;spacingRight=4;overflow=hidden;points=[[0,0.5],[1,0.5]];portConstraint=eastwest;rotatable=0;whiteSpace=wrap;html=1;" parent="LRcHN5__HN3L925FKqg--19" vertex="1">
          <mxGeometry y="40" width="170" height="40" as="geometry" />
        </mxCell>
        <mxCell id="BjdylfV-y9TQfgdL4LUo-6" style="edgeStyle=orthogonalEdgeStyle;rounded=0;orthogonalLoop=1;jettySize=auto;html=1;" edge="1" parent="1" source="LRcHN5__HN3L925FKqg--23" target="LRcHN5__HN3L925FKqg--2">
          <mxGeometry relative="1" as="geometry">
            <Array as="points">
              <mxPoint x="240" y="560" />
              <mxPoint x="240" y="380" />
            </Array>
          </mxGeometry>
        </mxCell>
        <mxCell id="LRcHN5__HN3L925FKqg--23" value="&lt;b&gt;GermanShepherd&lt;/b&gt;" style="swimlane;fontStyle=0;childLayout=stackLayout;horizontal=1;startSize=30;horizontalStack=0;resizeParent=1;resizeParentMax=0;resizeLast=0;collapsible=1;marginBottom=0;whiteSpace=wrap;html=1;" parent="1" vertex="1">
          <mxGeometry x="30" y="520" width="170" height="80" as="geometry" />
        </mxCell>
        <mxCell id="LRcHN5__HN3L925FKqg--24" value="" style="text;strokeColor=#FFFFFF;fillColor=none;align=left;verticalAlign=middle;spacingLeft=4;spacingRight=4;overflow=hidden;points=[[0,0.5],[1,0.5]];portConstraint=eastwest;rotatable=0;whiteSpace=wrap;html=1;strokeWidth=1;perimeterSpacing=0;" parent="LRcHN5__HN3L925FKqg--23" vertex="1">
          <mxGeometry y="30" width="170" height="10" as="geometry" />
        </mxCell>
        <mxCell id="LRcHN5__HN3L925FKqg--25" value="&lt;div&gt;&lt;b&gt;+ move( ) : void&lt;br&gt;&lt;/b&gt;&lt;/div&gt;&lt;b&gt;+ describe( ) : void&lt;/b&gt;" style="text;strokeColor=none;fillColor=none;align=left;verticalAlign=middle;spacingLeft=4;spacingRight=4;overflow=hidden;points=[[0,0.5],[1,0.5]];portConstraint=eastwest;rotatable=0;whiteSpace=wrap;html=1;" parent="LRcHN5__HN3L925FKqg--23" vertex="1">
          <mxGeometry y="40" width="170" height="40" as="geometry" />
        </mxCell>
        <mxCell id="BjdylfV-y9TQfgdL4LUo-2" style="edgeStyle=orthogonalEdgeStyle;rounded=0;orthogonalLoop=1;jettySize=auto;html=1;" edge="1" parent="1" source="LRcHN5__HN3L925FKqg--28" target="y90Ww6lygDX5tpMKGwTT-1">
          <mxGeometry relative="1" as="geometry" />
        </mxCell>
        <mxCell id="LRcHN5__HN3L925FKqg--28" value="&lt;b&gt;Smartphone&lt;/b&gt;" style="swimlane;fontStyle=0;childLayout=stackLayout;horizontal=1;startSize=40;horizontalStack=0;resizeParent=1;resizeParentMax=0;resizeLast=0;collapsible=1;marginBottom=0;whiteSpace=wrap;html=1;" parent="1" vertex="1">
          <mxGeometry x="520" y="280" width="170" height="190" as="geometry" />
        </mxCell>
        <mxCell id="LRcHN5__HN3L925FKqg--29" value="+ price : int&lt;div&gt;+ brand : String&lt;/div&gt;" style="text;strokeColor=#FFFFFF;fillColor=none;align=left;verticalAlign=middle;spacingLeft=4;spacingRight=4;overflow=hidden;points=[[0,0.5],[1,0.5]];portConstraint=eastwest;rotatable=0;whiteSpace=wrap;html=1;strokeWidth=1;perimeterSpacing=0;" parent="LRcHN5__HN3L925FKqg--28" vertex="1">
          <mxGeometry y="40" width="170" height="40" as="geometry" />
        </mxCell>
        <mxCell id="LRcHN5__HN3L925FKqg--30" value="&lt;div&gt;&lt;b&gt;+ move( ) : void&lt;/b&gt;&lt;br&gt;&lt;/div&gt;&lt;div&gt;&lt;br&gt;&lt;/div&gt;&lt;div&gt;+ getPrice( ) : int&lt;/div&gt;&lt;div&gt;+ setPrice( ) : void&lt;/div&gt;&lt;div&gt;+ getBrand( ) : String&lt;/div&gt;&lt;div&gt;+ setBrand( ) : void&lt;/div&gt;" style="text;strokeColor=none;fillColor=none;align=left;verticalAlign=middle;spacingLeft=4;spacingRight=4;overflow=hidden;points=[[0,0.5],[1,0.5]];portConstraint=eastwest;rotatable=0;whiteSpace=wrap;html=1;" parent="LRcHN5__HN3L925FKqg--28" vertex="1">
          <mxGeometry y="80" width="170" height="110" as="geometry" />
        </mxCell>
        <mxCell id="BjdylfV-y9TQfgdL4LUo-1" style="edgeStyle=orthogonalEdgeStyle;rounded=0;orthogonalLoop=1;jettySize=auto;html=1;" edge="1" parent="1" source="LRcHN5__HN3L925FKqg--31" target="y90Ww6lygDX5tpMKGwTT-1">
          <mxGeometry relative="1" as="geometry">
            <Array as="points">
              <mxPoint x="820" y="220" />
              <mxPoint x="515" y="220" />
            </Array>
          </mxGeometry>
        </mxCell>
        <mxCell id="LRcHN5__HN3L925FKqg--31" value="&lt;b&gt;Car&lt;/b&gt;" style="swimlane;fontStyle=0;childLayout=stackLayout;horizontal=1;startSize=40;horizontalStack=0;resizeParent=1;resizeParentMax=0;resizeLast=0;collapsible=1;marginBottom=0;whiteSpace=wrap;html=1;" parent="1" vertex="1">
          <mxGeometry x="730" y="280" width="180" height="230" as="geometry" />
        </mxCell>
        <mxCell id="LRcHN5__HN3L925FKqg--32" value="&lt;span style=&quot;text-wrap: nowrap;&quot;&gt;+ totalForwardGear : int&lt;/span&gt;&lt;br style=&quot;padding: 0px; margin: 0px; text-wrap: nowrap;&quot;&gt;&lt;span style=&quot;text-wrap: nowrap;&quot;&gt;+ color : String&lt;/span&gt;&lt;br style=&quot;padding: 0px; margin: 0px; text-wrap: nowrap;&quot;&gt;&lt;span style=&quot;text-wrap: nowrap;&quot;&gt;+ maxSpeed : int&lt;/span&gt;" style="text;strokeColor=#FFFFFF;fillColor=none;align=left;verticalAlign=middle;spacingLeft=4;spacingRight=4;overflow=hidden;points=[[0,0.5],[1,0.5]];portConstraint=eastwest;rotatable=0;whiteSpace=wrap;html=1;strokeWidth=1;perimeterSpacing=0;" parent="LRcHN5__HN3L925FKqg--31" vertex="1">
          <mxGeometry y="40" width="180" height="60" as="geometry" />
        </mxCell>
        <mxCell id="LRcHN5__HN3L925FKqg--33" value="&lt;div&gt;&lt;b&gt;+ move( ) : void&lt;/b&gt;&lt;br&gt;&lt;/div&gt;&lt;div&gt;&lt;br&gt;&lt;/div&gt;&lt;div&gt;+ getTotalForwardGear( ) : int&lt;/div&gt;&lt;div&gt;+ setTotalForwardGear( ) : void&lt;/div&gt;&lt;div&gt;+ getColor( ) : String&lt;/div&gt;&lt;div&gt;+ setColor( ) : void&lt;/div&gt;&lt;div&gt;+ getMaxSpeed( ) : int&lt;/div&gt;&lt;div&gt;+ setMaxSpeed( ) : void&lt;/div&gt;" style="text;strokeColor=none;fillColor=none;align=left;verticalAlign=middle;spacingLeft=4;spacingRight=4;overflow=hidden;points=[[0,0.5],[1,0.5]];portConstraint=eastwest;rotatable=0;whiteSpace=wrap;html=1;" parent="LRcHN5__HN3L925FKqg--31" vertex="1">
          <mxGeometry y="100" width="180" height="130" as="geometry" />
        </mxCell>
        <mxCell id="y90Ww6lygDX5tpMKGwTT-1" value="&lt;b&gt;Mystery&lt;/b&gt;&lt;div&gt;&lt;font face=&quot;Tahoma&quot;&gt;&amp;lt;&amp;lt; interface &amp;gt;&amp;gt;&lt;/font&gt;&lt;/div&gt;" style="swimlane;fontStyle=0;childLayout=stackLayout;horizontal=1;startSize=40;horizontalStack=0;resizeParent=1;resizeParentMax=0;resizeLast=0;collapsible=1;marginBottom=0;whiteSpace=wrap;html=1;" parent="1" vertex="1">
          <mxGeometry x="430" y="80" width="170" height="80" as="geometry" />
        </mxCell>
        <mxCell id="y90Ww6lygDX5tpMKGwTT-2" value="" style="text;strokeColor=#FFFFFF;fillColor=none;align=left;verticalAlign=middle;spacingLeft=4;spacingRight=4;overflow=hidden;points=[[0,0.5],[1,0.5]];portConstraint=eastwest;rotatable=0;whiteSpace=wrap;html=1;strokeWidth=1;" parent="y90Ww6lygDX5tpMKGwTT-1" vertex="1">
          <mxGeometry y="40" width="170" height="10" as="geometry" />
        </mxCell>
        <mxCell id="y90Ww6lygDX5tpMKGwTT-3" value="&lt;div&gt;+ move( ) : void&lt;/div&gt;" style="text;strokeColor=none;fillColor=none;align=left;verticalAlign=middle;spacingLeft=4;spacingRight=4;overflow=hidden;points=[[0,0.5],[1,0.5]];portConstraint=eastwest;rotatable=0;whiteSpace=wrap;html=1;" parent="y90Ww6lygDX5tpMKGwTT-1" vertex="1">
          <mxGeometry y="50" width="170" height="30" as="geometry" />
        </mxCell>
      </root>
    </mxGraphModel>
  </diagram>
</mxfile>
